<?xml version="1.0" encoding="utf-8"?>
<!-- Generator: Adobe Illustrator 27.8.1, SVG Export Plug-In . SVG Version: 6.00 Build 0)  -->
<svg version="1.1" id="Camada_1" xmlns="http://www.w3.org/2000/svg" xmlns:xlink="http://www.w3.org/1999/xlink" x="0px" y="0px"
	 viewBox="0 0 512 512" style="enable-background:new 0 0 512 512;" xml:space="preserve">
<style type="text/css">
	.st0{fill:#0275D8;}
</style>
<path class="st0" d="M464,280H80V100c0-13.7,5.4-26.8,15.1-36.5l0.4-0.4c15.4-15.4,38.9-19.5,58.6-10.2
	c-18.7,31.1-13.8,70.9,11.8,96.6l11,11l-20.2,20.2l22.6,22.6l20.2-20.2l0,0L311.2,71.5l0,0l20.2-20.2l-22.6-22.6l-20.2,20.2l-11-11
	c-27.1-27-69.5-30.8-100.9-9c-33-20.9-76.1-16.1-103.8,11.6l-0.4,0.4C56.8,56.5,47.9,77.8,48,100v180H16v32h32v30.7
	c0,2.6,0.4,5.1,1.2,7.6L79,439.6c3.3,9.8,12.4,16.4,22.8,16.4h12.9L103,496h33.3l11.7-40h208.1l12,40h33.4l-12-40h20.7
	c10.3,0,19.5-6.6,22.8-16.4l29.8-89.3c0.8-2.4,1.2-5,1.2-7.6V312h32v-32H464z M188.5,60.5c18.4-18.3,48.1-18.3,66.4,0l10.9,11
	l-66.4,66.4l-11-10.9C170.2,108.6,170.2,78.9,188.5,60.5z M432,341.4L404.5,424H107.5L80,341.4V312h352V341.4z"/>
</svg>
