<?xml version="1.0" encoding="utf-8"?>
<!-- Generator: Adobe Illustrator 27.8.1, SVG Export Plug-In . SVG Version: 6.00 Build 0)  -->
<svg version="1.1" id="icon" xmlns="http://www.w3.org/2000/svg" xmlns:xlink="http://www.w3.org/1999/xlink" x="0px" y="0px"
	 viewBox="0 0 32 32" style="enable-background:new 0 0 32 32;" xml:space="preserve">
<style type="text/css">
	.st0{fill:#0275D8;}
	.st1{fill:none;}
</style>
<rect x="13" y="19" class="st0" width="6" height="2"/>
<path class="st0" d="M25.4,14l-1.3-4.6c-0.2-0.9-1-1.4-1.9-1.4H9.8C8.9,8,8.1,8.6,7.8,9.5L6.5,14H4v2h2v7c0,1.1,0.9,2,2,2v3h2v-3h12
	v3h2v-3c1.1,0,2-0.9,2-2v-7h2v-2H25.4z M9.8,10h12.5l1.4,5H8.3L9.8,10z M24,21v2H8v-2h2v-2H8v-2h16v2h-2v2H24z"/>
<rect id="_Transparent_Rectangle_" class="st1" width="32" height="32"/>
</svg>
